<?xml version="1.0" encoding="UTF-8" standalone="no"?>
<svg
   id="Layer_1"
   data-name="Layer 1"
   viewBox="0 0 400 120"
   version="1.1"
   sodipodi:docname="nanobot.svg"
   inkscape:export-filename="nanobot_dark.png"
   inkscape:export-xdpi="96"
   inkscape:export-ydpi="96"
   xmlns:inkscape="http://www.inkscape.org/namespaces/inkscape"
   xmlns:sodipodi="http://sodipodi.sourceforge.net/DTD/sodipodi-0.dtd"
   xmlns="http://www.w3.org/2000/svg"
   xmlns:svg="http://www.w3.org/2000/svg">
  <sodipodi:namedview
     id="namedview13"
     pagecolor="#505050"
     bordercolor="#ffffff"
     borderopacity="1"
     inkscape:showpageshadow="0"
     inkscape:pageopacity="0"
     inkscape:pagecheckerboard="1"
     inkscape:deskcolor="#505050" />
  <defs
     id="defs1">
    <style
       id="style1">
      .cls-1 {
        fill: #fff;
      }

      .cls-2 {
        fill: #ff4044;
      }
    </style>
  </defs>
  <g
     id="g7">
    <path
       class="cls-2"
       d="M121.53,48.62c2.9,2.97,4.35,7.12,4.35,12.45v23.18h-9.99v-21.83c0-3.14-.79-5.55-2.35-7.24-1.57-1.69-3.71-2.53-6.42-2.53s-4.93.84-6.53,2.53c-1.59,1.69-2.39,4.1-2.39,7.24v21.83h-9.99v-39.52h9.99v4.92c1.33-1.71,3.03-3.06,5.1-4.03,2.07-.97,4.34-1.46,6.81-1.46,4.71,0,8.51,1.49,11.41,4.46Z"
       id="path1" />
    <path
       class="cls-2"
       d="M135.19,53.72c1.59-3.09,3.76-5.47,6.49-7.13,2.73-1.66,5.79-2.5,9.17-2.5,2.95,0,5.53.6,7.74,1.78,2.21,1.19,3.98,2.69,5.31,4.49v-5.63h10.06v39.52h-10.06v-5.78c-1.28,1.85-3.06,3.39-5.31,4.6s-4.86,1.82-7.81,1.82c-3.33,0-6.36-.86-9.09-2.57-2.74-1.71-4.9-4.12-6.49-7.24-1.59-3.11-2.39-6.69-2.39-10.73s.8-7.54,2.39-10.63ZM162.47,58.25c-.95-1.73-2.24-3.07-3.85-3.99-1.62-.93-3.35-1.39-5.21-1.39s-3.57.45-5.14,1.36c-1.57.9-2.84,2.22-3.82,3.96-.97,1.74-1.46,3.79-1.46,6.17s.49,4.46,1.46,6.24,2.26,3.15,3.85,4.1c1.59.95,3.29,1.43,5.1,1.43s3.59-.46,5.21-1.39c1.62-.93,2.9-2.26,3.85-3.99.95-1.74,1.43-3.82,1.43-6.24s-.48-4.5-1.43-6.24Z"
       id="path2" />
    <path
       class="cls-2"
       d="M217.04,48.62c2.9,2.97,4.35,7.12,4.35,12.45v23.18h-9.99v-21.83c0-3.14-.79-5.55-2.35-7.24-1.57-1.69-3.71-2.53-6.42-2.53s-4.93.84-6.53,2.53c-1.59,1.69-2.39,4.1-2.39,7.24v21.83h-9.99v-39.52h9.99v4.92c1.33-1.71,3.03-3.06,5.1-4.03,2.07-.97,4.34-1.46,6.81-1.46,4.71,0,8.51,1.49,11.41,4.46Z"
       id="path3" />
    <path
       class="cls-2"
       d="M238.15,82.36c-3.04-1.69-5.43-4.08-7.17-7.17-1.74-3.09-2.6-6.66-2.6-10.7s.89-7.61,2.67-10.7c1.78-3.09,4.22-5.48,7.31-7.17,3.09-1.69,6.54-2.53,10.34-2.53s7.25.84,10.34,2.53c3.09,1.69,5.53,4.08,7.31,7.17,1.78,3.09,2.67,6.66,2.67,10.7s-.92,7.61-2.75,10.7c-1.83,3.09-4.3,5.48-7.42,7.17-3.12,1.69-6.6,2.53-10.45,2.53s-7.23-.84-10.27-2.53ZM253.52,74.87c1.59-.88,2.86-2.2,3.82-3.96.95-1.76,1.43-3.9,1.43-6.42,0-3.76-.99-6.65-2.96-8.67-1.97-2.02-4.39-3.03-7.24-3.03s-5.24,1.01-7.17,3.03c-1.93,2.02-2.89,4.91-2.89,8.67s.94,6.65,2.82,8.67c1.88,2.02,4.24,3.03,7.1,3.03,1.81,0,3.51-.44,5.1-1.32Z"
       id="path4" />
    <path
       class="cls-2"
       d="M291.68,45.88c2.26-1.19,4.84-1.78,7.74-1.78,3.38,0,6.43.83,9.17,2.5,2.73,1.67,4.9,4.03,6.49,7.1,1.59,3.07,2.39,6.62,2.39,10.66s-.8,7.62-2.39,10.73c-1.59,3.12-3.76,5.53-6.49,7.24-2.74,1.71-5.79,2.57-9.17,2.57-2.95,0-5.53-.58-7.74-1.75-2.21-1.17-3.98-2.67-5.31-4.53v5.63h-9.99V31.47h9.99v19.04c1.28-1.9,3.06-3.45,5.31-4.64ZM305.8,58.18c-.98-1.74-2.26-3.05-3.85-3.96-1.59-.9-3.32-1.36-5.17-1.36s-3.51.46-5.1,1.39c-1.59.93-2.88,2.27-3.85,4.03-.98,1.76-1.46,3.83-1.46,6.21s.49,4.45,1.46,6.21c.97,1.76,2.26,3.1,3.85,4.03,1.59.93,3.29,1.39,5.1,1.39s3.58-.47,5.17-1.43c1.59-.95,2.88-2.31,3.85-4.07.97-1.76,1.46-3.85,1.46-6.28s-.49-4.43-1.46-6.17Z"
       id="path5" />
    <path
       class="cls-2"
       d="M332.02,82.36c-3.04-1.69-5.43-4.08-7.17-7.17-1.74-3.09-2.6-6.66-2.6-10.7s.89-7.61,2.67-10.7c1.78-3.09,4.22-5.48,7.31-7.17,3.09-1.69,6.54-2.53,10.34-2.53s7.25.84,10.34,2.53c3.09,1.69,5.53,4.08,7.31,7.17,1.78,3.09,2.67,6.66,2.67,10.7s-.92,7.61-2.75,10.7c-1.83,3.09-4.3,5.48-7.42,7.17-3.12,1.69-6.6,2.53-10.45,2.53s-7.23-.84-10.27-2.53ZM347.39,74.87c1.59-.88,2.86-2.2,3.82-3.96.95-1.76,1.43-3.9,1.43-6.42,0-3.76-.99-6.65-2.96-8.67-1.97-2.02-4.39-3.03-7.24-3.03s-5.24,1.01-7.17,3.03c-1.93,2.02-2.89,4.91-2.89,8.67s.94,6.65,2.82,8.67c1.88,2.02,4.24,3.03,7.1,3.03,1.81,0,3.51-.44,5.1-1.32Z"
       id="path6" />
    <path
       class="cls-2"
       d="M381.88,52.94v19.12c0,1.33.32,2.29.96,2.89.64.6,1.72.89,3.25.89h4.64v8.42h-6.28c-8.42,0-12.62-4.09-12.62-12.27v-19.04h-4.71v-8.2h4.71v-9.77h10.06v9.77h8.84v8.2h-8.84Z"
       id="path7" />
  </g>
  <g
     id="g13">
    <path
       class="cls-1"
       d="M57.26,33.61h-2.19v1.35c0,2.1-.84,3.58-2.32,5.07-1.49,1.49-3.5,1.24-5.61,1.24h-8.51c-2.1,0-3.58.25-5.07-1.24-1.49-1.49-2.32-2.96-2.32-5.07v-1.35h-2.19c-3.8,0-6.84,3.04-6.84,6.84v18.76c0,3.8,3.04,6.84,6.84,6.84h28.2c3.8,0,6.84-3.04,6.84-6.84v-18.76c0-3.8-3.04-6.84-6.84-6.84ZM41.83,54.78c0,.85-.69,1.55-1.55,1.55h-6.01c-.85,0-1.55-.69-1.55-1.55v-6.2c0-.85.69-1.55,1.55-1.55h6.01c.85,0,1.55.69,1.55,1.55v6.2ZM53.59,54.78c0,.85-.69,1.55-1.55,1.55h-6.01c-.85,0-1.55-.69-1.55-1.55v-6.2c0-.85.69-1.55,1.55-1.55h6.01c.85,0,1.55.69,1.55,1.55v6.2Z"
       id="path8"
       style="fill:#000000" />
    <path
       d="M54.61,73.83h-7.48c-.6,0-1.18.24-1.61.67s-.67,1-.67,1.61v7.34c0,2.89,2.35,5.24,5.24,5.24,1.69,0,3.27-.84,4.22-2.23,1.05-1.54,2.5-3.67,3.92-5.74.92-1.35,1.02-3.09.26-4.53-.76-1.44-2.26-2.34-3.89-2.34Z"
       id="path9"
       style="fill:#ffffff" />
    <path
       d="M75.99,43.8c-1.28,0-2.33,1.05-2.33,2.33v2.81h-4.48v-8.5c0-6.55-5.37-11.93-11.93-11.93h-1.38l2.17-8.12c1.7-.53,2.86-2.14,2.86-3.95,0-2.27-1.83-4.13-4.04-4.13h0c-2.22,0-4.04,1.86-4.04,4.13,0,.89.29,1.75.81,2.46l-2.57,9.61h-15.81l-2.57-9.61c.52-.71.8-1.57.81-2.46,0-2.27-1.83-4.13-4.04-4.13h0c-2.22,0-4.04,1.86-4.04,4.13,0,1.81,1.17,3.42,2.86,3.95l2.17,8.12h-1.38c-6.55,0-11.93,5.37-11.93,11.93v8.5h-4.48v-2.81c0-1.28-1.05-2.33-2.33-2.33s-2.33,1.05-2.33,2.33v10.51c.02,1.26,1.06,2.29,2.33,2.29s2.31-1.03,2.33-2.29v-3.05h4.48v5.61c0,6.55,5.37,11.93,11.93,11.93h28.2c6.55,0,11.93-5.37,11.93-11.93v-5.61h4.48v3.05c.02,1.26,1.06,2.29,2.33,2.29s2.31-1.03,2.33-2.29v-10.51c0-1.28-1.05-2.33-2.33-2.33ZM64.1,59.21c0,3.8-3.04,6.84-6.84,6.84h-28.2c-3.8,0-6.84-3.04-6.84-6.84v-18.76c0-3.8,3.04-6.84,6.84-6.84h2.19v1.35c0,2.1.84,3.58,2.32,5.07,1.49,1.49,2.96,1.24,5.07,1.24h8.51c2.1,0,4.12.25,5.61-1.24,1.49-1.49,2.32-2.96,2.32-5.07v-1.35h2.19c3.8,0,6.84,3.04,6.84,6.84v18.76Z"
       id="path10"
       style="fill:#ffffff" />
    <path
       d="M38.77,25.77c.27.36.7.58,1.16.58s.88-.21,1.16-.58l2.17-2.86,2.08,2.75c.27.36.7.58,1.16.58s.88-.21,1.16-.58l2.63-3.47c.48-.64.36-1.55-.28-2.04-.25-.19-.56-.3-.88-.3-.45,0-.88.21-1.16.58l-1.47,1.94-2.08-2.75c-.27-.36-.7-.57-1.16-.57h0c-.45,0-.88.21-1.16.57l-2.17,2.86-1.59-2.09c-.48-.64-1.4-.76-2.04-.28-.64.48-.76,1.4-.28,2.04l2.75,3.62Z"
       id="path11"
       style="fill:#ffffff" />
    <path
       d="M39.19,73.83h-7.48c-1.63,0-3.13.9-3.89,2.34-.76,1.44-.66,3.19.26,4.53,1.42,2.07,2.87,4.2,3.92,5.74.95,1.39,2.53,2.23,4.22,2.23h0c2.89,0,5.24-2.35,5.24-5.24v-7.34c0-.6-.24-1.18-.67-1.61s-1-.67-1.61-.67Z"
       id="path12"
       style="fill:#ffffff" />
    <path
       id="rect12"
       style="fill:#ffffff"
       d="M 34.279999,47.029999 H 40.28 c 0.8587,0 1.55,0.6913 1.55,1.55 v 6.2 c 0,0.8587 -0.6913,1.55 -1.55,1.55 h -6.000001 c -0.858699,0 -1.549999,-0.6913 -1.549999,-1.55 v -6.2 c 0,-0.8587 0.6913,-1.55 1.549999,-1.55 z" />
    <path
       d="M46.03,47.03h6.01c.85,0,1.55.69,1.55,1.55v6.2c0,.85-.69,1.55-1.55,1.55h-6.01c-.85,0-1.55-.69-1.55-1.55v-6.2c0-.85.69-1.55,1.55-1.55Z"
       id="path13"
       style="fill:#ffffff" />
  </g>
</svg>
