<?xml version="1.0" encoding="UTF-8"?>
<svg version="1.1" xmlns="http://www.w3.org/2000/svg" width="3141" height="649">
<path d="M0 0 C9.79205761 7.19813507 15.65481758 15.60646092 18.546875 27.421875 C19.73766373 40.88055691 17.47199566 50.69638138 9.81640625 61.9375 C7.546875 64.421875 7.546875 64.421875 5.39508057 65.44880676 C2.27948753 67.12206469 0.6252782 68.52895879 -1.453125 71.421875 C-3.25752306 78.24534787 -2.63907132 85.67530443 -2.55078125 92.66796875 C-2.55643676 94.76548147 -2.5660508 96.86298694 -2.57945251 98.96046448 C-2.60403787 104.46665934 -2.57500022 109.97130493 -2.53466797 115.47735596 C-2.50300041 121.10149428 -2.52221703 126.7254357 -2.53710938 132.34960938 C-2.55882305 143.37409769 -2.52387016 154.39761933 -2.453125 165.421875 C-1.72334788 165.42003141 -0.99357077 165.41818783 -0.24167919 165.41628838 C17.59867 165.37192436 35.43900804 165.33892911 53.27940083 165.31825066 C61.90723476 165.30798234 70.53503166 165.29400811 79.1628418 165.27099609 C86.69169985 165.25092494 94.22053103 165.23812637 101.7494151 165.23369801 C105.72784231 165.23111361 109.70619275 165.2251345 113.68459511 165.21041489 C155.35931937 165.06226517 155.35931937 165.06226517 171.234375 169.671875 C172.01288818 169.88948486 172.79140137 170.10709473 173.59350586 170.33129883 C193.65249334 176.08664597 211.52672139 184.94150184 227.546875 198.421875 C228.41570313 199.15019531 229.28453125 199.87851563 230.1796875 200.62890625 C240.76609053 209.8380813 252.61775209 221.04956548 257.546875 234.421875 C258.63484375 234.38707031 259.7228125 234.35226563 260.84375 234.31640625 C280.4505695 233.86840398 297.08812719 239.599226 311.86328125 252.73046875 C324.58938425 265.49362008 332.84731506 282.13833698 332.96459961 300.31298828 C332.95050049 301.3182959 332.93640137 302.32360352 332.921875 303.359375 C332.91099854 304.41624512 332.90012207 305.47311523 332.88891602 306.56201172 C332.48161572 326.45978394 324.191759 342.33751017 309.921875 356.046875 C299.68111144 364.89401783 286.69948477 372.09507426 272.90625 372.5390625 C266.46021464 372.62581062 266.46021464 372.62581062 261.14111328 375.85986328 C258.27175794 379.7716476 256.07012463 384.06659707 253.76660156 388.32519531 C250.50210823 393.93677833 245.9390276 398.67916815 241.546875 403.421875 C241.04816895 403.96440918 240.54946289 404.50694336 240.03564453 405.06591797 C215.36806407 431.60166483 181.58630234 446.80033911 145.546875 449.421875 C140.9431142 449.56299974 136.34218589 449.56547606 131.73651123 449.56231689 C130.35762616 449.56490565 128.97874183 449.56792021 127.59985852 449.5713203 C123.83399291 449.5793341 120.06814641 449.58117671 116.30227327 449.58191776 C112.2310921 449.58377825 108.15992062 449.59133065 104.08874512 449.59805298 C95.19558311 449.61159817 86.30242563 449.61765544 77.40925503 449.62206364 C71.84670098 449.62483329 66.28414865 449.62907201 60.72159576 449.63356781 C45.29391464 449.64575694 29.86623488 449.65605602 14.43854904 449.6594429 C13.45231724 449.65966247 12.46608543 449.65988203 11.44996782 449.66010825 C10.4614864 449.66032653 9.47300498 449.66054481 8.45456958 449.6607697 C6.45180941 449.66121315 4.44904923 449.66165972 2.44628906 449.66210938 C1.45286834 449.6623308 0.45944763 449.66255223 -0.56407675 449.66278037 C-16.6373174 449.66672284 -32.71051256 449.68416162 -48.78373566 449.7074689 C-65.32076175 449.7312533 -81.85776508 449.74364802 -98.39480853 449.74481082 C-107.66552634 449.74572376 -116.93618492 449.75137911 -126.20688629 449.76963043 C-134.1060381 449.78512763 -142.00511237 449.79009584 -149.90427652 449.78189233 C-153.92525904 449.77801916 -157.94608588 449.77874933 -161.96704865 449.79294968 C-199.24976662 449.9167472 -234.75403797 445.61878634 -265.453125 422.421875 C-266.32324219 421.7721875 -267.19335938 421.1225 -268.08984375 420.453125 C-278.86769282 412.01965478 -289.07187416 402.28286748 -297.015625 391.109375 C-297.63074951 390.24602539 -297.63074951 390.24602539 -298.25830078 389.36523438 C-300.03104349 386.79073016 -301.50116008 384.30900729 -302.7265625 381.4296875 C-304.03825193 378.39255425 -304.94633088 376.607514 -307.453125 374.421875 C-312.03024195 372.91031809 -316.85631263 372.5610002 -321.625 372.03515625 C-337.05750439 370.29403777 -352.7101669 360.36838063 -362.453125 348.421875 C-375.71513883 330.59353351 -379.92143408 311.21924057 -377.16894531 289.14257812 C-374.12616703 272.81109793 -363.51164927 257.26208542 -350.37890625 247.3359375 C-334.98383811 237.26439759 -320.69608902 233.83827307 -302.453125 234.421875 C-302.20433594 233.71160156 -301.95554687 233.00132812 -301.69921875 232.26953125 C-290.74997622 207.24759455 -261.28165598 186.47575095 -236.7734375 176.44140625 C-210.26399356 166.1207916 -184.38854214 165.11496648 -156.24692178 165.21908712 C-152.23381005 165.23175576 -148.22069395 165.23277749 -144.20756531 165.23513794 C-136.63977754 165.24130604 -129.0720489 165.25765225 -121.50428694 165.27783692 C-112.87524016 165.30034306 -104.24619026 165.311226 -95.61712134 165.32122779 C-77.89575595 165.34202373 -60.17444526 165.37710684 -42.453125 165.421875 C-42.37524926 153.28645863 -42.34583269 141.15197886 -42.37796688 129.01632595 C-42.39137313 123.38086296 -42.38820319 117.74643279 -42.34692383 112.11108398 C-42.30768517 106.67055912 -42.3122858 101.23166203 -42.34704781 95.79112434 C-42.35263882 93.71753258 -42.34253795 91.64383618 -42.31635857 89.57040215 C-41.70878567 78.58364667 -41.70878567 78.58364667 -45.41360474 68.69094849 C-47.6879388 66.93409849 -49.90924615 65.73435079 -52.453125 64.421875 C-61.3645966 55.00856922 -63.96603209 44.18683249 -63.7265625 31.60546875 C-63.18583451 19.82455839 -57.59434248 11.02745209 -49.140625 3.171875 C-35.50495275 -7.90325246 -14.86253734 -9.56125013 0 0 Z M-253.453125 242.421875 C-271.15838802 263.37215407 -280.28579077 288.66438618 -278.05908203 316.15087891 C-275.47851692 341.52552653 -263.69432286 364.3768168 -244.40234375 381.109375 C-224.89187871 396.40764692 -203.07801102 403.74921522 -178.34373474 403.68930054 C-176.944635 403.69304437 -175.54553735 403.69764879 -174.14644295 403.70303118 C-170.32948739 403.71518633 -166.51261997 403.71500962 -162.6956495 403.71264243 C-158.56797543 403.71223235 -154.4403289 403.72329167 -150.31266785 403.73275757 C-142.23550573 403.74932806 -134.15837281 403.75486535 -126.08119511 403.75598232 C-119.510288 403.7569348 -112.93939048 403.76105505 -106.3684864 403.76738358 C-87.70989345 403.78498623 -69.05132344 403.79422413 -50.39272212 403.79272263 C-49.38809208 403.79264272 -48.38346205 403.7925628 -47.34838867 403.79248047 C-45.8395883 403.79235783 -45.8395883 403.79235783 -44.3003071 403.79223271 C-28.01101362 403.79142038 -11.72181273 403.81054718 4.56745399 403.8387572 C21.32145958 403.86754142 38.0754201 403.88129441 54.82945102 403.87956965 C64.22411985 403.8789076 73.61869164 403.88431848 83.01333809 403.90592575 C91.01434322 403.92421072 99.01520733 403.9284253 107.01622439 403.9149069 C111.09144073 403.90841357 115.16638713 403.90812684 119.24157715 403.9256134 C152.7600744 404.06038963 181.25559477 398.65463075 206.34375 374.7578125 C223.89122544 356.28391755 233.75298216 331.95339944 233.546875 306.421875 C232.47716552 279.92833169 222.37062685 256.31547379 203.546875 237.421875 C177.28264782 213.30357046 146.12647333 210.75919649 112.18780518 211.1472168 C108.15784236 211.18877871 104.12777343 211.20653929 100.09765625 211.2265625 C92.24711369 211.26894474 84.39708413 211.33684215 76.546875 211.421875 C76.48647034 212.17546799 76.42606567 212.92906097 76.36383057 213.70549011 C76.23835846 215.18968193 76.23835846 215.18968193 76.11035156 216.70385742 C76.0293219 217.68432541 75.94829224 218.6647934 75.86480713 219.67497253 C74.85212584 228.42443974 70.39258933 236.52025611 63.58203125 242.00390625 C54.02435156 248.9076081 44.49267052 249.86803913 32.93408203 249.82592773 C31.59248287 249.83164283 30.25088856 249.83861145 28.90930176 249.84672546 C25.29342988 249.86454779 21.67780213 249.86350916 18.06189966 249.85778308 C15.03041108 249.85467488 11.99896829 249.86080178 8.96748626 249.86682183 C1.80885121 249.88082996 -5.34966442 249.87933721 -12.50830078 249.86791992 C-19.86449048 249.85644596 -27.22031527 249.87051051 -34.5764569 249.8973164 C-40.91907004 249.91955353 -47.2615693 249.92609272 -53.6042186 249.92023998 C-57.38056124 249.91688783 -61.15667017 249.91916809 -64.93297958 249.93649101 C-68.48729416 249.95208648 -72.04107306 249.94786736 -75.59536743 249.92918587 C-77.50142276 249.92380996 -79.4075029 249.93791824 -81.31350708 249.95288086 C-92.20440362 249.86080487 -102.00390628 247.63401058 -110.48046875 240.48046875 C-116.91528039 233.76532868 -120.20781535 225.88662554 -120.99609375 216.73046875 C-121.08270264 215.73716553 -121.16931152 214.7438623 -121.25854492 213.72045898 C-121.32275635 212.96192627 -121.38696777 212.20339355 -121.453125 211.421875 C-130.10413826 211.32816791 -138.7549308 211.25760987 -147.40633011 211.21462631 C-151.42585745 211.19397054 -155.44503142 211.16607006 -159.46435547 211.12011719 C-195.47266238 210.71960446 -227.41296447 214.99399432 -253.453125 242.421875 Z " fill="#4E7DF3" transform="translate(377.453125,5.578125)"/>
<path d="M0 0 C1.66118555 -0.00239515 3.32237003 -0.00566373 4.98355237 -0.0097166 C9.52611111 -0.01828749 14.0685866 -0.01453071 18.6111465 -0.00866088 C23.56167573 -0.00447409 28.51219021 -0.01190183 33.4627158 -0.01781338 C42.1319579 -0.02656275 50.80117638 -0.02789199 59.47042179 -0.02431011 C72.36215586 -0.01899771 85.25386709 -0.02510381 98.14559868 -0.03339304 C121.84101179 -0.04821023 145.53641528 -0.05048344 169.23183212 -0.04807267 C172.58660076 -0.0477342 175.9413694 -0.04741211 179.29613805 -0.04710698 C180.29571466 -0.04701542 180.29571466 -0.04701542 181.31548473 -0.046922 C196.09793127 -0.04564891 210.88037636 -0.04825366 225.66282247 -0.05163305 C229.04040596 -0.05240379 232.41798946 -0.05314853 235.79557296 -0.05389806 C237.15118362 -0.05419976 238.50679429 -0.05450164 239.86240495 -0.05480371 C240.87034909 -0.05502822 240.87034909 -0.05502822 241.89865574 -0.05525728 C243.25787816 -0.05556081 244.61710058 -0.0558655 245.976323 -0.05617132 C284.53266467 -0.0648418 323.08900507 -0.06949008 361.6453476 -0.06522369 C362.35896963 -0.06514564 363.07259166 -0.06506758 363.8078386 -0.06498716 C371.76508843 -0.06411439 379.72233824 -0.06318513 387.67958806 -0.06223653 C388.39798073 -0.06215102 389.1163734 -0.06206551 389.85653555 -0.06197741 C395.82502906 -0.0612667 395.82502906 -0.0612667 398.57221989 -0.06093518 C444.52204004 -0.05539952 490.47184009 -0.06294227 536.42165661 -0.08170605 C548.00042148 -0.08642844 559.57918637 -0.09110903 571.15795135 -0.09554291 C572.22744391 -0.09595289 572.22744391 -0.09595289 573.31854237 -0.09637116 C595.30052371 -0.10474506 617.28250339 -0.10942236 639.26448631 -0.11025047 C639.95482373 -0.11027684 640.64516115 -0.11030321 641.35641789 -0.11033037 C656.51233156 -0.1108712 671.66824509 -0.11049859 686.82415872 -0.10929066 C692.24740617 -0.10886505 697.67065362 -0.10849992 703.09390107 -0.10816122 C704.44300738 -0.10807591 705.79211368 -0.10798698 707.14121998 -0.1078944 C727.95196712 -0.10649186 748.76270129 -0.11287695 769.57344532 -0.1238451 C792.4751144 -0.1358942 815.37675661 -0.13745934 838.27842609 -0.12505493 C851.09221865 -0.11842507 863.90594697 -0.1200604 876.7197344 -0.13364345 C885.28349358 -0.14188873 893.84720464 -0.13918932 902.41095991 -0.12766818 C907.28719532 -0.12141266 912.16330538 -0.11980873 917.03953353 -0.13153151 C921.48505857 -0.14212023 925.93035282 -0.13863285 930.37586575 -0.12442699 C931.96488212 -0.12172274 933.5539174 -0.1239184 935.14291585 -0.13193413 C963.91998016 -0.2670661 991.8961654 7.8750845 1015.10256481 25.25447559 C1015.97526012 25.90545216 1016.84795544 26.55642872 1017.74709606 27.22713184 C1034.71198267 40.51587904 1048.41086386 56.57240682 1059.10256481 75.25447559 C1059.45673473 75.86178516 1059.81090466 76.46909473 1060.175807 77.09480762 C1078.13219633 108.15001054 1085.55712059 143.03509661 1085.47756481 178.62947559 C1085.47674908 180.00927601 1085.47674908 180.00927601 1085.47591686 181.41695118 C1085.43455492 196.68910368 1084.46714812 211.30596426 1081.10256481 226.25447559 C1080.89889294 227.18485645 1080.69522106 228.11523731 1080.48537731 229.07381153 C1070.63997157 272.60326746 1045.00525294 314.49191893 1006.87990856 338.66365528 C982.31754477 353.58262146 957.35200077 358.42370673 928.83508396 358.38311005 C927.19360766 358.38445834 925.55213168 358.38624316 923.91065627 358.38842228 C919.40419755 358.39313837 914.8977591 358.39165513 910.39129939 358.38914451 C905.48685296 358.3875086 900.58241082 358.39165463 895.67796576 358.39505368 C887.08345916 358.4002045 878.48895818 358.40162544 869.89445019 358.40059757 C857.11383392 358.3990728 844.33322388 358.40323406 831.55260882 358.4084722 C807.39805816 358.41814531 783.24350961 358.42095642 759.08895724 358.42152926 C756.42563735 358.42159486 753.76231747 358.42166267 751.09899759 358.42173266 C750.43806795 358.42174967 749.77713831 358.42176667 749.0961805 358.42178419 C734.44221075 358.42219286 719.78824139 358.42438346 705.13427185 358.42688851 C699.09798658 358.42791688 693.0617013 358.42890692 687.02541602 358.42990476 C686.02494192 358.43007064 686.02494192 358.43007064 685.00425622 358.43023988 C646.78845699 358.436563 608.57265804 358.4406891 570.35685825 358.44023132 C568.92703478 358.44021554 567.49721131 358.44019981 566.06738783 358.44018411 C559.61202768 358.44011073 553.15666754 358.44002256 546.70130739 358.43993023 C543.82277017 358.43988911 540.94423295 358.43984896 538.06569574 358.43980892 C536.62493687 358.43978852 535.184178 358.4397675 533.74341913 358.43974586 C488.18979119 358.43906568 442.63617104 358.44638209 397.08254528 358.46028614 C385.60567445 358.46378726 374.12880361 358.46725676 362.65193272 358.47055054 C361.94522412 358.47075341 361.23851553 358.47095629 360.51039153 358.47116531 C338.72292768 358.47738197 316.93546446 358.48114619 295.14799976 358.48240852 C294.12167572 358.48246845 294.12167572 358.48246845 293.07461786 358.48252959 C278.05313497 358.48338293 263.03165211 358.48364403 248.0101692 358.48335921 C242.63496568 358.48326273 237.25976215 358.48321068 231.88455862 358.48318048 C230.54738312 358.48317257 229.21020763 358.48316236 227.87303213 358.48314986 C205.92468461 358.48296822 183.97634619 358.48921873 162.02800087 358.49810087 C140.64092532 358.50657687 119.25385937 358.5075677 97.86678307 358.50099155 C85.16168055 358.49729558 72.45660722 358.49912967 59.75150779 358.50893389 C51.26133466 358.5149319 42.77118268 358.51364039 34.28101052 358.50646339 C29.44593173 358.50258041 24.61090942 358.50181053 19.77583461 358.50992074 C15.36879878 358.51724806 10.961866 358.51520657 6.55483461 358.50599687 C4.97860374 358.50428923 3.40236461 358.50585865 1.8261422 358.51129808 C-33.59016912 358.62523635 -65.01045217 348.88496067 -91.89743519 325.25447559 C-93.17360706 324.16006153 -93.17360706 324.16006153 -94.47556019 323.04353809 C-110.39889617 309.12283026 -122.22358113 291.94899593 -131.89743519 273.25447559 C-132.21019398 272.6549004 -132.52295277 272.0553252 -132.84518909 271.43758106 C-140.30341759 256.93082942 -145.18780326 241.39539634 -148.70993519 225.50447559 C-148.90474476 224.63178028 -149.09955433 223.75908497 -149.30026722 222.85994434 C-152.30910841 208.459922 -153.31061239 194.05513917 -153.27243519 179.37947559 C-153.27189137 178.5820998 -153.27134754 177.78472401 -153.27078724 176.96318531 C-153.17763171 146.98685413 -147.04917072 118.64558688 -134.89743519 91.25447559 C-134.4299889 90.1997002 -134.4299889 90.1997002 -133.95309925 89.12361622 C-117.5667173 52.88283497 -88.21370368 22.58287906 -50.96530628 8.02449512 C-34.19463992 1.77955041 -17.77494364 -0.0538691 0 0 Z M-16.41686147 30.13739324 C-17.13785793 30.21384443 -17.85885438 30.29029563 -18.6016992 30.36906353 C-47.32754385 33.76009203 -71.7009658 50.9662392 -89.52634144 73.09822559 C-93.66880868 78.61241592 -97.37652273 84.32714931 -100.89743519 90.25447559 C-101.24016468 90.82472462 -101.58289417 91.39497364 -101.93600941 91.98250294 C-125.24811688 131.3195919 -129.20996222 181.15301838 -118.30759144 224.96150684 C-114.67054299 238.88541226 -109.78260315 251.61731639 -102.89743519 264.25447559 C-102.04858753 265.84195606 -102.04858753 265.84195606 -101.18259144 267.46150684 C-85.83001349 295.02389973 -62.01954827 315.17788174 -32.20993519 325.35994434 C-21.96431056 328.12674628 -12.03088143 328.54148279 -1.47657394 328.5117445 C0.1816552 328.51444101 1.83988311 328.51801061 3.49810871 328.52236897 C8.05110492 328.53180224 12.60402085 328.52883434 17.15702094 328.52381342 C22.11191455 328.52054187 27.06679118 328.52883344 32.02167934 328.53563178 C40.70478359 328.54593387 49.38786555 328.5487752 58.0709753 328.54671955 C70.98338936 328.54367012 83.89577874 328.55199229 96.808188 328.5624688 C121.21207442 328.58181561 145.61595311 328.58743853 170.01984621 328.58858292 C172.71072794 328.58871242 175.40160966 328.58884829 178.09249139 328.58898973 C179.09414697 328.58904075 179.09414697 328.58904075 180.11603802 328.58909279 C194.92169076 328.58991013 209.72734179 328.59429133 224.53299362 328.59930142 C230.63178667 328.60135818 236.73057975 328.60333826 242.82937282 328.60533392 C243.50326375 328.6055551 244.17715468 328.60577628 244.87146655 328.60600416 C283.48363517 328.61865059 322.09580268 328.62690259 360.70797348 328.62598705 C362.15264886 328.6259555 363.59732423 328.62592402 365.04199961 328.62589264 C371.5644081 328.62574587 378.08681659 328.62556953 384.60922508 328.62538487 C387.51765724 328.62530262 390.4260894 328.62522233 393.33452157 328.62514224 C394.79024356 328.62510145 396.24596556 328.62505941 397.70168756 328.62501612 C443.72603283 328.62365585 489.75034731 328.63828728 535.77468395 328.66609669 C547.36963962 328.67309894 558.96459532 328.68003796 570.55955124 328.68662548 C571.27353494 328.68703123 571.98751864 328.68743698 572.7231382 328.68785502 C594.73589702 328.70028891 616.7486533 328.7078169 638.76141548 328.71034145 C639.45273731 328.71042136 640.14405914 328.71050126 640.85633012 328.71058358 C656.03404832 328.7122903 671.21176636 328.71281247 686.38948464 328.71224283 C691.82065103 328.71204986 697.25181742 328.71194577 702.68298382 328.71188537 C704.03407785 328.71186954 705.38517189 328.71184913 706.73626592 328.71182412 C727.57951744 328.7114827 748.422744 328.72181495 769.26598835 328.73852634 C792.20618719 328.75690544 815.14634008 328.76146813 838.08654309 328.7475075 C850.92255248 328.74011706 863.75844634 328.7437792 876.59444349 328.76339218 C885.17315243 328.77539215 893.7517777 328.77280084 902.3304828 328.75845118 C907.21535617 328.75068844 912.10000598 328.74913578 916.98486359 328.76536588 C921.43830444 328.78003259 925.89133767 328.77592449 930.34476104 328.75751815 C931.93663083 328.75410594 933.52853341 328.75723152 935.12036961 328.76812056 C964.68141611 328.95661554 989.75769717 317.35991839 1011.10256481 297.25447559 C1041.23911735 267.46885817 1055.71997713 224.51334176 1056.33523083 182.72200489 C1056.471984 155.85867312 1052.20284932 129.90363677 1041.10256481 105.25447559 C1040.79061169 104.56031544 1040.47865856 103.86615528 1040.15725231 103.15095997 C1026.02213119 72.26629491 1002.15899334 46.92585067 970.20022106 34.71931934 C949.08494629 27.2517976 925.89788419 28.96411107 903.8386417 28.99754049 C898.99513718 29.00264947 894.15164539 28.99608007 889.30814272 28.99105382 C880.83301022 28.9838536 872.35790324 28.98403529 863.88276958 28.98914814 C851.27974048 28.9967305 838.67673279 28.9928366 826.07370381 28.98673153 C803.56161156 28.97621188 781.04953068 28.97710809 758.53743735 28.98288935 C738.83716106 28.98792359 719.13688893 28.9892324 699.43661213 28.98684406 C698.12904637 28.98669129 696.82148062 28.98653852 695.47429166 28.98638112 C690.16625681 28.98575843 684.85822197 28.98512163 679.55018713 28.9844616 C664.71342918 28.98263869 649.87667123 28.98148645 635.03991318 28.98088932 C634.02659124 28.98084838 634.02659124 28.98084838 632.99279815 28.98080662 C611.47701029 28.97998844 589.96122388 28.98223988 568.44543648 28.98658848 C567.39914724 28.98679923 567.39914724 28.98679923 566.33172084 28.98701423 C555.00534422 28.98930395 543.67896763 28.99174296 532.35259104 28.99419458 C487.43224953 29.00390731 442.51191994 29.00345547 397.59157848 28.99373341 C386.26963553 28.9912909 374.94769257 28.98886875 363.62574959 28.98658848 C362.92855828 28.98644758 362.23136698 28.98630669 361.51304866 28.98616152 C340.01817335 28.9818474 318.52329904 28.98002093 297.02842331 28.98088932 C296.35338897 28.98091649 295.67835464 28.98094366 294.98286472 28.98097165 C279.49810871 28.98162472 264.01335284 28.98303235 248.52859694 28.98495793 C243.23063187 28.98559935 237.9326668 28.98622504 232.63470173 28.98684406 C230.67800688 28.98708129 230.67800688 28.98708129 228.68178284 28.98732332 C208.9946231 28.98959699 189.30746798 28.9869401 169.62030888 28.98188496 C147.23293978 28.97616507 124.84558382 28.97759907 102.45821636 28.98844644 C89.93324876 28.9943152 77.4083096 28.99470784 64.88334274 28.9871541 C56.51224765 28.98266285 48.14117532 28.98547219 39.7700836 28.99416363 C35.00397954 28.99891109 30.23793189 29.00056893 25.47182965 28.99335167 C21.12630568 28.9868386 16.7808876 28.98971065 12.43537118 28.99971299 C10.88254884 29.00170849 9.3297175 29.00044552 7.7769024 28.99530111 C-0.3426039 28.97033486 -8.33953036 29.26848493 -16.41686147 30.13739324 Z " fill="#4E7DF3" transform="translate(2055.8974351882935,272.7455244064331)"/>
<path d="M0 0 C22.77 0 45.54 0 69 0 C69.33 41.91 69.66 83.82 70 127 C73.96 122.05 73.96 122.05 78 117 C98.84907749 95.85307855 127.19968684 86.43312648 156.4375 85.75 C190.34206063 86.58201376 220.73916127 98.07821809 244.59521484 122.64257812 C251.4972571 130.06009783 257.07798454 138.13632945 262 147 C262.33628418 147.60150879 262.67256836 148.20301758 263.01904297 148.82275391 C274.02133524 168.76537761 280.06557163 191.62088108 280.203125 214.42578125 C280.21018463 215.20673157 280.21724426 215.98768188 280.22451782 216.79229736 C280.45031656 249.09475163 280.45031656 249.09475163 277 263 C276.71793701 264.21550537 276.71793701 264.21550537 276.43017578 265.45556641 C268.50453572 298.9677199 249.48784477 329.1803454 220.09667969 347.72460938 C192.04505476 364.7881502 158.93570402 369.10540452 127 362 C104.32264172 356.38910723 86.78041454 343.89830223 71 327 C70.67 326.34 70.34 325.68 70 325 C69.67 336.88 69.34 348.76 69 361 C46.23 361 23.46 361 0 361 C0 241.87 0 122.74 0 0 Z M85.7265625 172.62109375 C70.70316641 191.99033814 66.52003825 216.42569154 69.4609375 240.40234375 C72.44506918 259.97181588 81.75621935 277.20924152 97 290 C113.09882307 301.78367462 131.37631313 306.24539431 151.10400391 303.73193359 C168.37356621 300.66958583 184.34930974 290.68980612 194.6328125 276.50390625 C208.95029774 255.53408461 213.41424773 230.36771309 208.8125 205.4375 C204.63875751 186.23828455 194.33947653 169.11529016 178 158 C145.87265279 139.55720597 110.01052315 144.62360648 85.7265625 172.62109375 Z " fill="#000000" transform="translate(1066,250)"/>
<path d="M0 0 C36.82894301 -0.87548993 73.08624683 11.45049013 100.171875 36.64453125 C108.03488105 44.16192142 114.66392179 51.80958295 120.33984375 61.12890625 C120.71834473 61.7434668 121.0968457 62.35802734 121.48681641 62.99121094 C130.53948084 77.82907625 136.00469767 93.10715445 139.33984375 110.12890625 C139.56671875 111.24652344 139.79359375 112.36414063 140.02734375 113.515625 C146.3415491 151.26931114 138.74954843 191.68823786 116.65234375 223.12890625 C94.97888731 253.02504044 62.71970481 271.66822171 26.40844727 277.53955078 C-11.38761996 283.05043099 -51.82917983 276.61806886 -83.09765625 253.62890625 C-113.15544309 229.93581471 -130.77749927 198.23418185 -135.4410553 160.29037476 C-135.78739132 156.87371048 -135.86119971 153.45829301 -135.8984375 150.02734375 C-135.90823135 149.27670151 -135.91802521 148.52605927 -135.92811584 147.75267029 C-136.09947203 131.21386633 -136.05834605 115.20539454 -131.66015625 99.12890625 C-131.44584961 98.34080566 -131.23154297 97.55270508 -131.01074219 96.74072266 C-121.88364203 64.45045054 -100.84752353 35.96677413 -71.66015625 19.12890625 C-48.91249413 6.59067807 -25.8005626 1.25024753 0 0 Z M-47.66015625 82.12890625 C-48.26859375 82.71414063 -48.87703125 83.299375 -49.50390625 83.90234375 C-63.86755325 98.95361215 -67.06539393 123.06797598 -66.63842773 142.96313477 C-66.0725133 157.57121923 -63.8700632 172.21534031 -56.66015625 185.12890625 C-55.88865234 186.51142578 -55.88865234 186.51142578 -55.1015625 187.921875 C-46.17221763 202.8728566 -33.22395237 212.05673902 -16.66015625 217.12890625 C2.81001181 221.77849862 21.86907469 218.10322702 38.96484375 207.94140625 C55.52740117 196.85998294 64.81597664 180.09369432 69.15234375 160.94140625 C73.49921735 137.51739943 71.51090816 110.18904974 58.15234375 89.87890625 C46.67204607 74.75606335 32.18143184 64.48763924 13.33984375 61.12890625 C-11.44942709 59.3313246 -29.97241108 64.49318386 -47.66015625 82.12890625 Z " fill="#000000" transform="translate(875.66015625,335.87109375)"/>
<path d="M0 0 C37.81919944 -1.00300529 74.33468354 12.13553828 102.07666016 37.83251953 C111.80287778 47.11126083 118.96791413 57.44171409 125.44140625 69.12109375 C125.99699219 70.10722656 126.55257813 71.09335937 127.125 72.109375 C136.32591493 89.38797628 141.46780097 109.68683129 141.6796875 129.22265625 C141.68943604 129.97343445 141.69918457 130.72421265 141.70922852 131.4977417 C141.87991637 148.04635633 141.79199952 164.02354116 137.44140625 180.12109375 C137.2594873 180.80671387 137.07756836 181.49233398 136.89013672 182.19873047 C132.56759349 197.87036395 125.21922876 212.21090687 115.44140625 225.12109375 C114.80589844 225.97960937 114.17039062 226.838125 113.515625 227.72265625 C91.49421192 256.44623852 58.81659728 272.89598596 23.37646484 278.10351562 C-13.62071761 282.90902783 -52.86006982 275.83106703 -83.09765625 253.22265625 C-85.63064576 251.23861184 -88.10039672 249.19690458 -90.55859375 247.12109375 C-91.37070313 246.4559375 -92.1828125 245.79078125 -93.01953125 245.10546875 C-117.9121538 223.90355049 -131.91006191 190.77936764 -135.27734375 158.7578125 C-138.11661614 118.5984886 -131.15716021 79.36055595 -104.8984375 47.74609375 C-79.56187618 19.3217712 -47.02654315 3.44847176 -8.93359375 0.37109375 C-5.95580921 0.22863265 -2.97769425 0.14092904 0 0 Z M-48.55859375 83.12109375 C-65.52484618 103.43060402 -67.27175841 130.45269758 -65.35644531 155.79589844 C-63.75881212 170.29517322 -58.71417744 183.71214024 -49.55859375 195.12109375 C-48.79482422 196.14589844 -48.79482422 196.14589844 -48.015625 197.19140625 C-38.13821216 209.62962982 -22.9422423 216.7352916 -7.44140625 218.83984375 C11.66557743 220.70393972 29.22948134 215.82468283 44.44140625 204.12109375 C45.45203125 203.39921875 46.46265625 202.67734375 47.50390625 201.93359375 C63.29485945 188.24511874 69.58348892 167.1368262 71.1875 147.0546875 C72.58466402 124.33617165 68.34178952 100.88132802 53.26171875 83.0625 C41.32725471 70.33411239 26.30395685 61.58007463 8.64453125 60.78125 C-14.50421626 60.20410943 -32.63702315 65.97478695 -48.55859375 83.12109375 Z " fill="#000000" transform="translate(1513.55859375,335.87890625)"/>
<path d="M0 0 C22.77 0 45.54 0 69 0 C69 22.11 69 44.22 69 67 C89.13 67 109.26 67 130 67 C130 85.48 130 103.96 130 123 C109.87 123 89.74 123 69 123 C69.11979552 146.21685962 69.11979552 146.21685962 69.2578125 169.43359375 C69.31816453 178.90541375 69.37653601 188.37721574 69.421875 197.84912109 C69.45490884 204.74839107 69.49480221 211.64758222 69.54279006 218.54676497 C69.56794231 222.1967854 69.58975625 225.8467543 69.60334396 229.49683762 C69.61867474 233.58052567 69.6493258 237.66396575 69.68115234 241.74755859 C69.68331253 242.94590332 69.68547272 244.14424805 69.68769836 245.37890625 C69.78142283 254.81907765 70.11394633 264.25519254 76 272 C81.02760137 275.39311368 86.26378545 277.0778509 92.30957031 277.20532227 C93.58791748 277.23559509 93.58791748 277.23559509 94.89208984 277.26647949 C95.77848145 277.28295532 96.66487305 277.29943115 97.578125 277.31640625 C98.39974121 277.33505737 99.22135742 277.3537085 100.06787109 277.3729248 C103.12847438 277.44107303 106.18924955 277.50131701 109.25 277.5625 C116.0975 277.706875 122.945 277.85125 130 278 C130 297.47 130 316.94 130 337 C122.925625 337.020625 115.85125 337.04125 108.5625 337.0625 C106.36795166 337.071604 104.17340332 337.08070801 101.91235352 337.09008789 C73.5930987 337.15969308 43.01559244 336.73401976 20.93359375 316.12109375 C3.96247392 297.50428957 -0.18181182 274.46223085 -0.11352539 250.03491211 C-0.11324282 248.64443972 -0.11340261 247.25396718 -0.1139679 245.86349487 C-0.11425315 242.11413412 -0.10840048 238.36480579 -0.10139394 234.61545253 C-0.09511504 230.68769291 -0.09455303 226.75993244 -0.09336853 222.83216858 C-0.09026854 215.40573285 -0.0820732 207.97931195 -0.07201904 200.55288273 C-0.06081642 192.09334488 -0.05533702 183.63380631 -0.05032361 175.17426288 C-0.03988939 157.78283182 -0.02156057 140.39142107 0 123 C-10.56 123 -21.12 123 -32 123 C-32 104.52 -32 86.04 -32 67 C-21.44 67 -10.88 67 0 67 C0 44.89 0 22.78 0 0 Z " fill="#000000" transform="translate(1715,274)"/>
<path d="M0 0 C20.79 0 41.58 0 63 0 C65.25 14.625 65.25 14.625 65.22705078 20.2590332 C65.22689972 21.51935867 65.22674866 22.77968414 65.22659302 24.07820129 C65.21627045 25.38915268 65.20594788 26.70010406 65.1953125 28.05078125 C65.19157001 29.44467462 65.18872891 30.83857068 65.18673706 32.23246765 C65.17919763 35.85407112 65.1596359 39.47550732 65.1373291 43.0970459 C65.11665845 46.81141906 65.10769057 50.52581995 65.09765625 54.24023438 C65.076378 61.49356482 65.04236353 68.74675874 65 76 C65.61098541 76.19653168 66.22197083 76.39306335 66.85147095 76.59555054 C68.05928726 76.98983749 68.05928726 76.98983749 69.29150391 77.39208984 C70.08811432 77.65049652 70.88472473 77.9089032 71.70547485 78.17514038 C90.94981626 85.09329517 107.25221885 103.13876968 116.1640625 121.16455078 C118.63955328 126.59993037 120.37332482 132.26034938 122 138 C122.23460937 138.80953125 122.46921875 139.6190625 122.7109375 140.453125 C124.46101928 147.30127111 124.48459097 153.78427354 125 161 C64.94 161 4.88 161 -57 161 C-55.11497509 132.72462637 -45.58501736 109.33307236 -24.1953125 90.53515625 C-17.18660639 84.97947458 -5.35951556 76 4 76 C3.90673496 68.72643034 3.79931794 61.45316267 3.68261719 54.17993164 C3.64461991 51.7118794 3.60971933 49.24377727 3.578125 46.77563477 C3.40857287 33.6909791 3.14184462 20.92952732 1 8 C0.505 4.04 0.505 4.04 0 0 Z " fill="#4E7DF3" transform="translate(461,488)"/>
<path d="M0 0 C20.79 0 41.58 0 63 0 C62.01 7.26 61.02 14.52 60 22 C59.72766345 26.6953836 59.51633672 31.27339756 59.48828125 35.9609375 C59.46135445 37.71212387 59.46135445 37.71212387 59.43388367 39.49868774 C59.3809297 43.12409128 59.34626405 46.74937277 59.3125 50.375 C59.27922483 52.87631875 59.24472634 55.37762153 59.20898438 57.87890625 C59.12527432 63.9191603 59.05645616 69.95943281 59 76 C59.75829102 76.13647949 60.51658203 76.27295898 61.29785156 76.41357422 C70.77302816 78.46989642 79.79944159 84.73236065 87 91 C87.80953125 91.66644531 88.6190625 92.33289063 89.453125 93.01953125 C108.71903442 109.41919341 117.86061213 132.25629032 120 157 C120 158.32 120 159.64 120 161 C59.94 161 -0.12 161 -62 161 C-60.82017993 144.48251902 -60.82017993 144.48251902 -58.9375 137.625 C-58.72198486 136.829729 -58.50646973 136.03445801 -58.28442383 135.21508789 C-54.6557526 122.61069207 -48.7158994 111.80108055 -40 102 C-39.40960938 101.25621094 -38.81921875 100.51242187 -38.2109375 99.74609375 C-29.32154326 88.87077101 -16.79615215 81.45824569 -4 76 C-3.34 76 -2.68 76 -2 76 C-2.00444122 75.23959915 -2.00888245 74.4791983 -2.01345825 73.695755 C-2.05379563 66.47418544 -2.08411539 59.25267172 -2.10362434 52.03101826 C-2.11399175 48.31970158 -2.12801946 44.60847922 -2.15087891 40.8972168 C-2.17286208 37.30509218 -2.18462133 33.71305737 -2.18975449 30.12087059 C-2.19516258 28.10661732 -2.21073301 26.09239938 -2.22659302 24.07820129 C-2.22681961 22.18771309 -2.22681961 22.18771309 -2.22705078 20.2590332 C-2.231492 19.16871292 -2.23593323 18.07839264 -2.24050903 16.95503235 C-1.89447699 11.26473496 -0.86684895 5.63451821 0 0 Z " fill="#4E7DF3" transform="translate(186,488)"/>
<path d="M0 0 C9.57 0 19.14 0 29 0 C31.68140363 9.87505585 34.1633522 19.75551459 36.41796875 29.73828125 C36.72342532 31.07975809 37.02920304 32.42116184 37.33528137 33.76249695 C38.28907738 37.9451392 39.23856305 42.1287531 40.1875 46.3125 C41.29916215 51.2126722 42.41263017 56.11242179 43.53032875 61.01122093 C43.97393395 62.95957975 44.41438183 64.90865656 44.8547821 66.85774231 C45.12208633 68.03044174 45.38939056 69.20314117 45.66479492 70.41137695 C45.89921799 71.4453511 46.13364105 72.47932526 46.37516785 73.54463196 C46.90306323 75.98347692 46.90306323 75.98347692 48 78 C48.23581284 77.05230743 48.47162567 76.10461487 48.71458435 75.12820435 C50.9339556 66.21022862 53.15579293 57.2928705 55.38006496 48.3761158 C56.52358606 43.79158088 57.66622803 39.20683053 58.80688477 34.62158203 C59.90709202 30.19907008 61.00957728 25.77713182 62.11366463 21.35558701 C62.53512327 19.66604851 62.9557516 17.97630267 63.37554741 16.28635025 C63.96229929 13.92488858 64.55196187 11.56417207 65.14233398 9.20361328 C65.31640274 8.50014771 65.4904715 7.79668213 65.66981506 7.07189941 C66.88594784 2.22810432 66.88594784 2.22810432 68 0 C78.23 0 88.46 0 99 0 C105.27 25.41 111.54 50.82 118 77 C119.44582615 72.66252154 120.645985 68.55336338 121.67993164 64.12426758 C121.83467453 63.4649675 121.98941742 62.80566742 122.14884949 62.12638855 C122.65519527 59.96636339 123.15764325 57.80545097 123.66015625 55.64453125 C124.01334105 54.13565001 124.3668154 52.62683651 124.7205658 51.11808777 C125.64809876 47.1594987 126.57251909 43.20019007 127.49603271 39.24066162 C128.97692117 32.89283429 130.46161224 26.54589813 131.94808769 20.19937706 C132.46624227 17.98444877 132.98249128 15.76908247 133.49855042 13.55366516 C133.81545705 12.19827804 134.13242456 10.84290515 134.44946289 9.48754883 C134.72544815 8.3042952 135.00143341 7.12104156 135.28578186 5.90193176 C136 3 136 3 137 0 C146.24 0 155.48 0 165 0 C158.15532832 24.0916285 151.1805779 48.14269384 144.11499023 72.17041016 C142.85304625 76.46293488 141.59261717 80.75590442 140.33203125 85.04882812 C137.88943859 93.36630256 135.44513398 101.6832723 133 110 C122.77 110 112.54 110 102 110 C97.5 95.375 97.5 95.375 96.16894531 90.19995117 C95.86893616 89.03972946 95.568927 87.87950775 95.25982666 86.68412781 C94.79863434 84.88175407 94.79863434 84.88175407 94.328125 83.04296875 C94.00084412 81.77399246 93.67356323 80.50501617 93.33636475 79.19758606 C92.47887169 75.87266258 91.62497749 72.54682584 90.77191162 69.22076416 C89.89574886 65.80740782 89.01607221 62.39495734 88.13671875 58.98242188 C86.42110049 52.32248134 84.70929452 45.66156627 83 39 C81.13803046 42.35153878 80.1857193 45.68412599 79.22827148 49.38916016 C79.06377502 50.02051376 78.89927856 50.65186737 78.72979736 51.30235291 C78.18944215 53.3802114 77.65533395 55.45962423 77.12109375 57.5390625 C76.74565872 58.98598851 76.36976193 60.43279479 75.99342346 61.87948608 C75.00528511 65.68188492 74.02213014 69.48555269 73.04040527 73.28961182 C71.46662049 79.38575751 69.88678944 85.48033142 68.30409431 91.57416916 C67.75190542 93.70414497 67.20276335 95.83488996 66.65391541 97.96572876 C66.31682401 99.26705534 65.97963551 100.56835677 65.64233398 101.86962891 C65.34858383 103.00784088 65.05483368 104.14605286 64.75218201 105.3187561 C64 108 64 108 63 110 C52.77 110 42.54 110 32 110 C25.70289154 90.65759236 19.97785213 71.15918179 14.27294922 51.63574219 C12.8885299 46.898368 11.49852376 42.16265283 10.10708046 37.42733765 C9.02713979 33.7494607 7.95043415 30.07064271 6.87467575 26.39154053 C6.36303198 24.64337781 5.85031447 22.89552896 5.33647537 21.14801025 C4.62282658 18.7194288 3.91363634 16.28958794 3.20556641 13.859375 C2.99574127 13.14874908 2.78591614 12.43812317 2.56973267 11.70596313 C1.43100921 7.77806765 0.67748261 4.06489566 0 0 Z " fill="#4E7DF3" transform="translate(2749,400)"/>
<path d="M0 0 C9.57 0 19.14 0 29 0 C31.05220058 8.71052108 33.10391663 17.42115591 35.15479851 26.13198757 C36.10729541 30.17749886 37.05999802 34.22296146 38.01318359 38.26831055 C38.9343961 42.17799982 39.85505147 46.08781993 40.7753334 49.99772835 C41.12515877 51.4835679 41.47517916 52.96936155 41.82540512 54.45510674 C43.59448547 61.96053757 45.3520137 69.4668715 47 77 C49.00268981 73.46503787 49.89427212 69.88505455 50.86352539 65.95239258 C51.03777542 65.25115768 51.21202545 64.54992279 51.39155579 63.82743835 C51.76795584 62.30999396 52.14216561 60.79200494 52.51442146 59.27353859 C53.10285865 56.87331073 53.69698798 54.47455551 54.29258728 52.07609558 C55.34003092 47.85408106 56.38242583 43.63083921 57.42315674 39.40716553 C59.09171196 32.6356189 60.76419995 25.86506236 62.44372368 19.09622765 C63.03005619 16.72763384 63.61195646 14.35797982 64.19361877 11.98823547 C64.55084369 10.54525075 64.90825042 9.10231101 65.26586914 7.65942383 C65.73314171 5.76224358 65.73314171 5.76224358 66.20985413 3.82673645 C67 1 67 1 68 0 C70.21855264 -0.08783542 72.43988496 -0.10694609 74.66015625 -0.09765625 C75.65685585 -0.09553383 75.65685585 -0.09553383 76.6736908 -0.09336853 C78.80333899 -0.08775518 80.93288339 -0.07520054 83.0625 -0.0625 C84.50325369 -0.05748671 85.94400903 -0.05292351 87.38476562 -0.04882812 C90.92321102 -0.03778145 94.46159539 -0.02050792 98 0 C99.5219078 4.38763509 100.75691418 8.78479635 101.87939453 13.29052734 C102.14317902 14.3452272 102.14317902 14.3452272 102.41229248 15.42123413 C102.98803404 17.72558414 103.56044566 20.03074717 104.1328125 22.3359375 C104.53331256 23.94167125 104.93402162 25.54735288 105.33493042 27.15298462 C106.38585421 31.36428957 107.43394878 35.57629361 108.48144531 39.78845215 C109.55232058 44.09246886 110.62588447 48.39581474 111.69921875 52.69921875 C113.80210334 61.13216021 115.90199795 69.56584251 118 78 C119.6910266 70.98001153 121.37804857 63.95906904 123.0625 56.9375 C123.31199402 55.89800201 123.56148804 54.85850403 123.81854248 53.7875061 C127.32984903 39.14489073 130.76266627 24.48908841 133.98071289 9.77905273 C134.3653772 8.03797241 134.3653772 8.03797241 134.7578125 6.26171875 C134.9758252 5.26100342 135.19383789 4.26028809 135.41845703 3.22924805 C136 1 136 1 137 0 C138.99964982 -0.08758003 141.0023611 -0.10696576 143.00390625 -0.09765625 C144.21884766 -0.09443359 145.43378906 -0.09121094 146.68554688 -0.08789062 C147.96494141 -0.07951172 149.24433594 -0.07113281 150.5625 -0.0625 C151.84576172 -0.05798828 153.12902344 -0.05347656 154.45117188 -0.04882812 C157.63416022 -0.03699545 160.81705762 -0.02051068 164 0 C162.49990508 8.77850032 160.00597932 17.24890903 157.4921875 25.77734375 C157.04302837 27.31252262 156.59423452 28.8478084 156.14578247 30.38319397 C154.96569608 34.41968469 153.78046777 38.45464783 152.59417725 42.48931885 C151.4162707 46.49907947 150.24357584 50.51036323 149.0703125 54.52148438 C147.03005328 61.4937419 144.98319816 68.46403666 142.93157578 75.4329586 C141.67009772 79.71866061 140.41242217 84.00544725 139.1587429 88.293437 C138.23588113 91.44764547 137.30900567 94.60067469 136.3828125 97.75390625 C136.05151337 98.89061264 135.72021423 100.02731903 135.37887573 101.19847107 C135.07740631 102.22166946 134.77593689 103.24486786 134.46533203 104.29907227 C134.20462921 105.18909439 133.94392639 106.07911652 133.67532349 106.99610901 C133 109 133 109 132 110 C129.78144736 110.08783542 127.56011504 110.10694609 125.33984375 110.09765625 C124.34314415 110.09553383 124.34314415 110.09553383 123.3263092 110.09336853 C121.19666101 110.08775518 119.06711661 110.07520054 116.9375 110.0625 C115.49674631 110.05748671 114.05599097 110.05292351 112.61523438 110.04882812 C109.07678898 110.03778145 105.53840461 110.02050792 102 110 C99.04962832 102.75217454 97.1600385 95.30121209 95.2421875 87.7265625 C94.8905999 86.35261634 94.53855144 84.97878803 94.18606567 83.60507202 C93.26538731 80.01313845 92.34961191 76.41997547 91.43530273 72.82641602 C89.96615858 67.05418385 88.49106451 61.28347771 87.01297379 55.51353073 C86.49843186 53.50098626 85.98696693 51.48767751 85.47579956 49.47427368 C85.16522614 48.25895966 84.85465271 47.04364563 84.53466797 45.79150391 C84.12521439 44.18222519 84.12521439 44.18222519 83.70748901 42.54043579 C83.09657591 40.03410151 83.09657591 40.03410151 82 38 C75.73 61.76 69.46 85.52 63 110 C52.77 110 42.54 110 32 110 C28.62501107 101.00002952 28.62501107 101.00002952 27.67236328 97.76443481 C27.45380676 97.02744354 27.23525024 96.29045227 27.0100708 95.53112793 C26.78245056 94.7527356 26.55483032 93.97434326 26.3203125 93.17236328 C26.07110046 92.32894379 25.82188843 91.48552429 25.56512451 90.61654663 C24.74898017 87.85194333 23.93697443 85.08614309 23.125 82.3203125 C22.55381144 80.38264332 21.9823552 78.44505304 21.41064453 76.50753784 C19.90993646 71.41915312 18.41270685 66.32975152 16.91625977 61.2401123 C15.39928106 56.08266765 13.879269 50.92611738 12.359375 45.76953125 C10.64755468 39.96158045 8.93599363 34.15355531 7.22705078 28.34475708 C6.9670932 27.46159254 6.70713562 26.578428 6.43930054 25.6685009 C5.94224796 23.97892077 5.44582388 22.28915559 4.95010376 20.59918404 C3.50337152 15.67454604 2.01960815 10.76399729 0.44970703 5.87692261 C0 4 0 4 0 0 Z " fill="#4F7DF3" transform="translate(2013,400)"/>
<path d="M0 0 C9.57 0 19.14 0 29 0 C29.33 26.07 29.66 52.14 30 79 C37.82823997 69.63938862 37.82823997 69.63938862 45.4375 60.125 C46.35155586 58.95572398 47.26561859 57.78645332 48.1796875 56.6171875 C49.11981296 55.41147494 50.05991652 54.2057453 51 53 C53.01864348 50.41494662 55.04004469 47.83207161 57.0625 45.25 C57.527771 44.6533252 57.99304199 44.05665039 58.47241211 43.44189453 C60.23676844 41.18895227 61.97439904 39.02560096 64 37 C66.79684797 36.82474945 69.4932808 36.76856811 72.2890625 36.8046875 C73.51669815 36.80893234 73.51669815 36.80893234 74.76913452 36.81326294 C77.38790393 36.82447468 80.00633364 36.84958071 82.625 36.875 C84.39843257 36.88502853 86.17187049 36.8941546 87.9453125 36.90234375 C92.29700626 36.92441722 96.6484455 36.95895356 101 37 C98.20944508 41.27057929 95.3199439 44.97760624 91.8125 48.6875 C88.26663691 52.47847427 84.86796851 56.31679357 81.625 60.375 C77.58213754 65.40321962 73.24597405 70.08463015 68.82592773 74.77734375 C63.95118639 79.98168367 59.42085658 85.40253301 55 91 C56.52079073 94.50827915 58.5995673 96.95271646 61.1875 99.75 C63.99045417 102.80776819 66.78107908 105.86719183 69.5 109 C72.89374015 112.89651647 76.35430003 116.73064945 79.81640625 120.56640625 C82.27488204 123.30635333 84.69265171 126.0792673 87.10546875 128.859375 C90.26214824 132.42609739 93.5183695 135.9024741 96.765625 139.38671875 C98.85004908 141.82462033 100.39178725 144.23758001 102 147 C96.79031979 147.34928232 91.58758734 147.60142419 86.36889648 147.76904297 C84.59978503 147.8389505 82.83146817 147.93413561 81.06518555 148.05615234 C66.8394161 149.01338535 66.8394161 149.01338535 62.15603638 145.69247437 C58.88261716 142.46398028 56.4724592 138.7833958 54.14099121 134.84329224 C52.20058886 131.70853664 49.87509513 128.93332876 47.5625 126.0625 C45.726875 123.731875 43.89125 121.40125 42 119 C38.04 114.05 34.08 109.1 30 104 C29.67 118.19 29.34 132.38 29 147 C19.43 147 9.86 147 0 147 C0 98.49 0 49.98 0 0 Z " fill="#4E7DF3" transform="translate(2397,363)"/>
<path d="M0 0 C11.11485609 9.07641723 17.45242541 22.35428855 19.37109375 36.40625 C20.99988593 53.63474189 17.41456777 69.05901296 6.73046875 82.875 C-4.54341583 96.22175642 -19.25568199 100.89567706 -36.05859375 102.6171875 C-50.65226331 103.22223184 -65.48200944 98.22519653 -76.7890625 89.02734375 C-88.98555233 77.29994968 -94.23325114 61.97885102 -94.6015625 45.33984375 C-94.23307235 28.69275916 -89.08410755 13.95573159 -77.0703125 2.0859375 C-55.00465023 -16.79166642 -23.19309028 -16.37385942 0 0 Z M-59.3515625 23.33984375 C-65.65470003 32.49617667 -66.42910322 43.73081136 -64.6015625 54.40234375 C-62.73007722 62.72722655 -59.4985602 68.5046656 -52.3515625 73.33984375 C-45.08541252 77.24203541 -37.59859252 78.30186131 -29.61328125 76.18359375 C-21.61094021 73.19826445 -16.08655757 67.99352218 -12.3515625 60.33984375 C-9.2050177 51.30028548 -8.618548 39.8859761 -11.9140625 30.77734375 C-15.56421881 23.23283054 -20.8072922 17.89846181 -28.3515625 14.33984375 C-40.34152274 10.62569806 -51.15328838 14.24886867 -59.3515625 23.33984375 Z " fill="#4E7DF3" transform="translate(2722.3515625,409.66015625)"/>
<path d="M0 0 C0.8765625 0.00563965 1.753125 0.0112793 2.65625 0.01708984 C18.12327618 0.30552589 31.44392273 5.60081635 42.64453125 16.4296875 C53.74391093 29.01239442 58.23719526 44.90800146 57.5 61.5 C56.21748622 77.14666816 49.90616726 90.69654625 38.1875 101.3125 C24.48608295 111.74403274 8.63158035 115.90952898 -8.4296875 113.8828125 C-25.09998248 111.46325919 -37.40371122 104.26674676 -47.68359375 90.875 C-56.7676601 77.10165252 -58.10089072 59.89751343 -55.59375 43.98046875 C-52.64480292 30.13516222 -45.98573108 18.63873237 -34.5859375 10.09765625 C-23.68914151 3.08380305 -12.84742041 -0.08714336 0 0 Z M-21.8125 35.3125 C-27.33713934 42.54632463 -28.06808083 52.80112869 -27.66015625 61.59765625 C-26.51239187 70.06925047 -23.90385308 78.17627635 -17.125 83.75 C-10.40966296 88.18489426 -3.3285212 90.12776099 4.671875 88.9453125 C13.76894915 86.65691807 19.55832453 82.13052192 24.4375 74.30859375 C28.91051542 65.37809421 28.4599787 53.76237639 26.5625 44.14453125 C23.87737716 36.41281593 18.14977542 30.55607672 10.9375 26.8125 C-1.06423087 22.17734877 -13.38625746 25.94269385 -21.8125 35.3125 Z " fill="#4E7DF3" transform="translate(2240.8125,397.6875)"/>
<path d="M0 0 C10.6732438 7.7032977 17.22285389 19.4753581 19.78125 32.3046875 C21.37664169 44.93945615 18.6470167 57.95253854 11.05859375 68.24609375 C2.80545699 78.1849776 -7.69969407 86.53744127 -21.01025391 87.84228516 C-31.09988495 88.32157832 -40.63303134 88.45067178 -49.75390625 83.62109375 C-50.62273437 83.17378906 -51.4915625 82.72648437 -52.38671875 82.265625 C-63.98320514 75.80967063 -71.61239458 66.086886 -75.69140625 53.37109375 C-78.96105944 39.18897304 -76.97387575 25.34961188 -69.56640625 12.80859375 C-62.15158055 2.00054273 -51.61996096 -5.01941085 -38.84008789 -7.99951172 C-24.90635397 -10.53351084 -11.86995582 -7.61576366 0 0 Z " fill="#4E7DF3" transform="translate(548.75390625,273.37890625)"/>
<path d="M0 0 C1.36705746 1.00350484 2.72271157 2.02286784 4.0625 3.0625 C5.09375 3.805 6.125 4.5475 7.1875 5.3125 C15.92850326 13.67345964 21.48392224 24.48816734 22.30078125 36.59375 C22.5826397 51.66575998 19.13343259 64.06795717 8.84375 75.53515625 C-1.91206368 85.99413741 -13.67135548 89.36549584 -28.15771484 89.37719727 C-41.85232807 89.16865612 -51.73999131 83.97919844 -61.6875 74.75 C-70.75307759 65.17127651 -74.88482278 53.12645025 -74.9375 40.0625 C-74.30726032 26.5719641 -68.6895409 14.84184113 -59.3125 5.1796875 C-43.0725852 -9.29734181 -18.46036785 -11.88712539 0 0 Z " fill="#4F7DF3" transform="translate(215.9375,271.9375)"/>
<path d="M0 0 C42.9 0 85.8 0 130 0 C130 18.48828572 124.06286516 34.65707341 111 48 C96.5545577 60.53497895 80.14340742 66.94539434 61.015625 66.3828125 C43.4327413 65.01640072 27.11667823 57.50615641 15.48828125 44.10546875 C8.86409796 35.57614845 4.41069148 27.34678763 1.6875 16.9375 C1.51565186 16.2887793 1.34380371 15.64005859 1.16674805 14.97167969 C-0.10838069 9.66874223 0 5.74266855 0 0 Z " fill="#4E7DF2" transform="translate(290,293)"/>
<path d="M0 0 C0.72058594 0.29003906 1.44117187 0.58007812 2.18359375 0.87890625 C12.3922261 5.49112389 17.93002207 13.02277743 22.375 23.125 C23 26 23 26 23 34 C14.09 34 5.18 34 -4 34 C-5.32 31.03 -6.64 28.06 -8 25 C-14.42514041 20.21034988 -21.16836505 20.01341742 -29 21 C-32.01183665 21.93223515 -32.77315955 22.58758952 -35 25 C-36.3309316 28.39969811 -36.3309316 28.39969811 -36 32 C-32.93562632 37.1926332 -29.29514869 38.37447646 -23.8125 40 C-23.02093506 40.25072266 -22.22937012 40.50144531 -21.41381836 40.75976562 C-17.4364471 42.00676366 -13.43815022 43.16658559 -9.421875 44.28125 C2.47028821 47.58807007 13.9261625 51.06246321 21 62 C23.54973743 67.00948413 24.52273616 71.30176295 24.4375 76.875 C24.42920166 77.57753906 24.42090332 78.28007812 24.41235352 79.00390625 C24.12808699 87.76052922 21.02098367 93.79731691 15.1171875 100.14453125 C4.35950622 109.57238846 -10.12387206 111.84502061 -24 111 C-38.99602099 109.54205351 -51.73137671 103.846659 -61.45703125 92.20703125 C-65.88571744 85.87232822 -67 80.73036911 -67 73 C-57.43 73 -47.86 73 -38 73 C-37.01 75.64 -36.02 78.28 -35 81 C-33.43594409 82.87374374 -33.43594409 82.87374374 -31.5625 83.9375 C-30.98628906 84.31777344 -30.41007812 84.69804687 -29.81640625 85.08984375 C-24.8722992 87.56721352 -19.40812269 87.59910341 -14 87 C-9.48665108 85.49056874 -6.66185803 83.99278705 -4 80 C-3.84516561 76.49739918 -3.84516561 76.49739918 -5 73 C-9.69331398 69.1296842 -14.63936771 67.66381519 -20.4375 66.0625 C-22.22567486 65.54439702 -24.01343246 65.02485185 -25.80078125 64.50390625 C-26.68072754 64.25012207 -27.56067383 63.99633789 -28.46728516 63.73486328 C-55.47349105 55.89905455 -55.47349105 55.89905455 -62 45 C-65.85463073 36.17685286 -66.14472426 27.58079826 -63.09375 18.484375 C-58.82399128 8.78592305 -51.57977635 3.95399749 -42.20703125 -0.25390625 C-29.50634165 -4.96942749 -12.61503564 -5.18395644 0 0 Z " fill="#4E7DF3" transform="translate(2989,401)"/>
<path d="M0 0 C0 7.92 0 15.84 0 24 C-3.63 24.66 -7.26 25.32 -11 26 C-14.28944376 27.62231551 -14.28944376 27.62231551 -16 31 C-16.99180925 35.34707885 -17.50571428 39.55142855 -18 44 C-11.73 44 -5.46 44 1 44 C1 51.59 1 59.18 1 67 C-5.27 67 -11.54 67 -18 67 C-18 95.71 -18 124.42 -18 154 C-27.57 154 -37.14 154 -47 154 C-47 125.29 -47 96.58 -47 67 C-50.96 67 -54.92 67 -59 67 C-59 59.41 -59 51.82 -59 44 C-55.04 44 -51.08 44 -47 44 C-47.061875 42.2675 -47.12375 40.535 -47.1875 38.75 C-47.174876 28.05747492 -44.77305184 18.56856048 -37.75 10.375 C-26.19808508 0.3983462 -14.70802949 -0.37712896 0 0 Z " fill="#4E7DF3" transform="translate(2562,356)"/>
<path d="M0 0 C9.57 0 19.14 0 29 0 C29 48.51 29 97.02 29 147 C19.43 147 9.86 147 0 147 C0 98.49 0 49.98 0 0 Z " fill="#4E7EF3" transform="translate(2580,363)"/>
<path d="M0 0 C0 9.9 0 19.8 0 30 C-4.62 30.33 -9.24 30.66 -14 31 C-21.36268195 33.03651324 -21.36268195 33.03651324 -27.5 37.1875 C-32.10674403 45.82514505 -32.46752291 53.99362391 -32.51171875 63.66015625 C-32.52859534 65.05978438 -32.54674951 66.45939764 -32.56611633 67.85899353 C-32.61329982 71.51341092 -32.64331244 75.16776796 -32.66955566 78.8223877 C-32.69952253 82.56335279 -32.74583933 86.30411463 -32.79101562 90.04492188 C-32.87821154 97.36329534 -32.938426 104.68118718 -33 112 C-42.57 112 -52.14 112 -62 112 C-62 75.7 -62 39.4 -62 2 C-52.43 2 -42.86 2 -33 2 C-32.67 6.29 -32.34 10.58 -32 15 C-31.38125 14.13375 -30.7625 13.2675 -30.125 12.375 C-22.57051473 3.3734584 -11.31461845 0 0 0 Z " fill="#4F7DF3" transform="translate(2379,398)"/>
</svg>
