<?xml version="1.0" encoding="UTF-8"?>
<svg id="Layer_1" data-name="Layer 1" xmlns="http://www.w3.org/2000/svg" viewBox="0 0 512 512">
  <defs>
    <style>
      .cls-1 {
        fill: #fff;
      }
    </style>
  </defs>
  <path class="cls-1" d="M348.33,145.39h-14.33v8.86c0,13.77-5.47,23.43-15.21,33.17-9.74,9.74-22.94,8.11-36.71,8.11h-55.69c-13.77,0-23.43,1.62-33.17-8.11-9.74-9.74-15.21-19.4-15.21-33.17v-8.86h-14.32c-24.89,0-44.77,19.88-44.77,44.77v122.85c0,24.88,19.89,44.77,44.77,44.77h184.65c24.88,0,44.77-19.88,44.77-44.77v-122.85c0-24.89-19.88-44.77-44.77-44.77ZM247.33,284.01c0,5.59-4.53,10.13-10.13,10.13h-39.35c-5.6,0-10.13-4.54-10.13-10.13v-40.62c0-5.59,4.53-10.13,10.13-10.13h39.35c5.6,0,10.13,4.54,10.13,10.13v40.62ZM324.29,284.01c0,5.59-4.54,10.13-10.14,10.13h-39.34c-5.59,0-10.14-4.54-10.14-10.13v-40.62c0-5.59,4.54-10.13,10.14-10.13h39.34c5.6,0,10.14,4.54,10.14,10.13v40.62Z"/>
  <path d="M330.95,408.78h-48.98c-3.94,0-7.72,1.57-10.51,4.36-2.79,2.79-4.36,6.57-4.36,10.52v48.04c0,18.94,15.36,34.3,34.3,34.3,11.06,0,21.41-5.47,27.65-14.6,6.87-10.06,16.4-24.01,25.67-37.59,6.02-8.82,6.66-20.24,1.68-29.68-4.98-9.44-14.78-15.35-25.45-15.35Z"/>
  <path d="M470.99,212.16c-8.36,0-15.23,6.88-15.23,15.23v18.41h-29.34v-55.65c0-42.92-35.17-78.09-78.09-78.09h-9.02l14.22-53.17c11.11-3.46,18.75-13.99,18.76-25.85,0-14.84-11.95-27.04-26.48-27.04h0c-14.53,0-26.48,12.21-26.48,27.04.03,5.8,1.88,11.44,5.28,16.09l-16.82,62.94h-103.55l-16.82-62.94c3.4-4.64,5.26-10.29,5.28-16.09,0-14.84-11.95-27.04-26.48-27.04h0c-14.53,0-26.48,12.21-26.48,27.04,0,11.86,7.65,22.39,18.76,25.85l14.22,53.17h-9.02c-42.92,0-78.09,35.17-78.09,78.09v55.65h-29.34v-18.41c0-8.36-6.88-15.23-15.23-15.23s-15.23,6.88-15.23,15.23v68.81c.12,8.28,6.96,15.02,15.23,15.02s15.11-6.74,15.23-15.02v-19.94h29.34v36.74c0,42.92,35.18,78.09,78.09,78.09h184.65c42.92,0,78.09-35.17,78.09-78.09v-36.74h29.34v19.94c.12,8.28,6.96,15.02,15.23,15.02s15.11-6.74,15.23-15.02v-68.81c0-8.36-6.88-15.23-15.23-15.23ZM393.09,313c0,24.88-19.88,44.77-44.77,44.77h-184.65c-24.89,0-44.77-19.88-44.77-44.77v-122.85c0-24.89,19.89-44.77,44.77-44.77h14.32v8.86c0,13.77,5.47,23.43,15.21,33.17,9.74,9.74,19.4,8.11,33.17,8.11h55.69c13.77,0,26.97,1.62,36.71-8.11,9.74-9.74,15.21-19.4,15.21-33.17v-8.86h14.33c24.88,0,44.77,19.88,44.77,44.77v122.85Z"/>
  <path d="M227.28,94.04c1.8,2.37,4.61,3.77,7.59,3.77s5.79-1.4,7.59-3.77l14.21-18.74,13.63,17.98c1.8,2.37,4.61,3.77,7.59,3.77s5.79-1.4,7.59-3.77l17.23-22.74c3.15-4.16,2.33-10.18-1.83-13.34-1.66-1.26-3.68-1.94-5.76-1.94-2.98,0-5.79,1.39-7.59,3.77l-9.65,12.72-13.63-17.98c-1.8-2.37-4.61-3.76-7.59-3.76h0c-2.98,0-5.79,1.39-7.59,3.76l-14.21,18.75-10.39-13.71c-3.16-4.16-9.18-4.98-13.34-1.83-4.16,3.15-4.99,9.17-1.84,13.34l17.98,23.71Z"/>
  <path d="M230.04,408.78h-48.98c-10.67,0-20.47,5.91-25.45,15.35-4.98,9.44-4.34,20.86,1.68,29.68,9.27,13.58,18.8,27.53,25.67,37.59,6.24,9.13,16.59,14.6,27.64,14.6h0c18.94,0,34.3-15.36,34.3-34.3v-48.04c0-3.94-1.57-7.73-4.36-10.52s-6.57-4.36-10.52-4.36Z"/>
  <path d="M197.84,233.26h39.35c5.59,0,10.13,4.54,10.13,10.13v40.62c0,5.59-4.54,10.13-10.13,10.13h-39.35c-5.59,0-10.13-4.54-10.13-10.13v-40.62c0-5.59,4.54-10.13,10.13-10.13Z"/>
  <path d="M314.15,233.26h-39.34c-5.59,0-10.14,4.54-10.14,10.13v40.62c0,5.59,4.54,10.13,10.14,10.13h39.34c5.6,0,10.14-4.54,10.14-10.13v-40.62c0-5.59-4.54-10.13-10.14-10.13Z"/>
</svg>